<svg xmlns="http://www.w3.org/2000/svg" xmlns:xlink="http://www.w3.org/1999/xlink" version="1.1" viewBox="0 0 135.467 135.467" role="img">
  <title>Lettergram for initials DBH</title>
  <defs><path id="DBH" d="M48.81 34.162c-2.7.01-5.1.15-7.878.433-18.051 1.772-23.45 8.138-23.45 28.043 0 21.276 6.366 27.562 27.883 27.321.908 0 1.813-.013 2.821-.037v24.083h10.315V90.073h18.533v23.934h10.317V90.035a150.4 150.4 0 0 0 5.48.084c18.614 0 24.095-3.626 24.095-15.876 0-8.623-2.177-11.846-9.59-13.135v-.484c5.56-1.209 7.251-3.95 7.251-11.12 0-11.767-5.64-15.233-24.578-15.233 2.337 0-.646.08-12.975.242v46.452H58.501V34.513c-3.99-.241-6.993-.362-9.692-.352Zm41.063 8.865c2.54 0 4.668.09 6.662.27 6.125.565 7.899 2.096 7.899 6.93 0 4.917-1.37 6.367-5.963 6.529H87.188V43.057a123.101 123.101 0 0 1 2.687-.029zm-41.688.03V80.85c-3.546.242-4.997.322-6.367.241-10.718-.564-13.941-4.915-13.941-19.018 0-13.296 3.06-17.566 13.376-18.614 3.304-.323 4.837-.403 6.932-.403zM87.351 65.62h9.106c7.816 0 10.152 1.773 10.152 7.897 0 5.962-2.82 7.736-12.41 7.736-1.585 0-3.194 0-6.848-.154z" style="stroke-width:.858628"/></defs>
  <rect class="background" width="100%" height="100%" fill="#242424"/>
  <use xlink:href="#DBH" class="shadow" transform="translate(1 1)"/>
  <use xlink:href="#DBH" class="subject" style="fill:#FFF;"/>
</svg>
